<?xml version="1.0" standalone="no"?>
<!DOCTYPE svg PUBLIC "-//W3C//DTD SVG 20010904//EN"
 "http://www.w3.org/TR/2001/REC-SVG-20010904/DTD/svg10.dtd">
<svg version="1.0" xmlns="http://www.w3.org/2000/svg"
 width="380.000000pt" height="380.000000pt" viewBox="0 0 380.000000 380.000000"
 preserveAspectRatio="xMidYMid meet">
<metadata>
Created by potrace 1.11, written by Peter Selinger 2001-2013
</metadata>
<g transform="translate(0.000000,380.000000) scale(0.100000,-0.100000)"
fill="#000000" stroke="none">
<path d="M340 2647 c-6 -7 -71 -13 -220 -23 -58 -3 -108 -8 -112 -11 -5 -2 -8
-294 -8 -649 0 -508 3 -644 13 -645 6 0 21 -2 32 -4 11 -3 47 -7 80 -10 33 -3
71 -8 85 -10 28 -5 79 -11 185 -20 39 -4 79 -8 91 -10 11 -2 52 -6 90 -10 38
-4 77 -9 87 -11 10 -2 48 -6 85 -9 37 -3 74 -8 82 -10 8 -2 51 -7 95 -10 44
-3 87 -8 95 -10 8 -2 40 -7 70 -10 30 -3 91 -10 135 -15 44 -5 107 -12 140
-15 33 -3 76 -9 95 -13 74 -14 182 -5 365 30 105 20 309 58 455 83 146 25 275
48 288 51 56 11 71 13 127 23 33 6 76 13 95 16 19 3 58 10 85 15 28 5 67 12
89 16 21 3 46 7 55 9 59 11 192 35 221 40 19 3 58 10 85 15 99 19 111 21 165
30 30 5 78 13 107 19 29 6 72 13 97 16 25 4 58 10 73 14 l28 7 3 222 c3 252 9
235 -88 247 -30 3 -66 8 -80 10 -14 3 -56 9 -95 15 -38 5 -81 12 -95 14 -14 3
-114 17 -223 32 -110 16 -206 34 -215 40 -15 11 -18 42 -22 221 -5 197 -6 210
-28 240 -15 21 -37 36 -60 42 -52 14 -2540 41 -2552 28z"/>
</g>
</svg>
